<!-- Generated by IcoMoon.io -->
<svg version="1.1" xmlns="http://www.w3.org/2000/svg" width="32" height="32" viewBox="0 0 32 32">
<title>backup</title>
<path fill="#ffcb5a" d="M18.28 32h-4.56l-1.835-3.875-1.548-0.642-4.038 1.443-3.225-3.225 1.443-4.038-0.642-1.548-3.875-1.835v-4.56l3.875-1.835 0.642-1.548-1.443-4.038 3.225-3.225 4.040 1.444 1.545-0.64 1.836-3.878h4.56l1.836 3.878 1.545 0.64 4.040-1.444 3.225 3.225-1.443 4.038 0.642 1.548 3.875 1.835v4.56l-3.875 1.835-0.642 1.548 1.443 4.038-3.225 3.225-4.038-1.443-1.548 0.642z"></path>
<path fill="#fff" d="M16 12c2.209 0 4 1.791 4 4h2c0.001-3.148-2.431-5.761-5.571-5.987s-5.92 2.014-6.368 5.13c-0.448 3.116 1.588 6.048 4.664 6.717l-1.432 1.432 1.414 1.414 3.51-3.51-2.317-4.644-1.79 0.894 1.244 2.487c-2.054-0.335-3.506-2.191-3.338-4.265s1.903-3.671 3.984-3.669z"></path>
<path fill="#fff" d="M20 18h2v2h-2z"></path>
</svg>
