<!-- Generated by IcoMoon.io -->
<svg version="1.1" xmlns="http://www.w3.org/2000/svg" width="32" height="32" viewBox="0 0 32 32">
<title>computer</title>
<path fill="#80b4fb" d="M12.354 19.72c-6.823 0-12.354-1.728-12.354-3.86v7.435c1.734 1.612 6.61 2.774 12.354 2.774s10.62-1.161 12.354-2.774v-7.435c0 2.132-5.531 3.86-12.354 3.86z"></path>
<path fill="#0290f4" d="M6.644 19.284c-3.949-0.644-6.644-1.935-6.644-3.424v7.435c1.116 1.037 3.533 1.888 6.644 2.363z"></path>
<path fill="#80b4fb" d="M12.354 6.954c-6.823 0-12.354-0.816-12.354-2.948v6.138c0 2.132 5.531 3.86 12.354 3.86s12.354-1.728 12.354-3.86v-6.138c0 2.132-5.531 2.948-12.354 2.948z"></path>
<path fill="#0290f4" d="M6.644 6.716c-3.949-0.376-6.644-1.223-6.644-2.711v6.138c0 1.488 2.696 2.779 6.644 3.424z"></path>
<path fill="#9dc6fb" d="M12.354 25.858c-6.823 0-12.354-1.728-12.354-3.86v5.998c0 2.132 5.531 3.86 12.354 3.86s12.354-1.728 12.354-3.86v-5.998c0 2.132-5.531 3.86-12.354 3.86z"></path>
<path fill="#80b4fb" d="M6.644 25.422c-3.949-0.644-6.644-1.935-6.644-3.424v5.998c0 1.488 2.696 2.779 6.644 3.424z"></path>
<path fill="#9dc6fb" d="M12.354 13.863c-6.823 0-12.354-1.728-12.354-3.86v5.997c0 2.132 5.531 3.86 12.354 3.86s12.354-1.728 12.354-3.86v-5.997c0 2.132-5.531 3.86-12.354 3.86z"></path>
<path fill="#80b4fb" d="M6.644 13.427c-3.949-0.644-6.644-1.935-6.644-3.424v5.997c0 1.488 2.696 2.779 6.644 3.424z"></path>
<path fill="#bed8fb" d="M24.709 4.005c0 2.132-5.531 3.86-12.354 3.86s-12.354-1.728-12.354-3.86c0-2.132 5.531-3.86 12.354-3.86s12.354 1.728 12.354 3.86z"></path>
<path fill="#9dc6fb" d="M5.658 4.005c0-1.468 1.322-2.791 3.439-3.724-5.242 0.447-9.097 1.945-9.097 3.724s3.854 3.277 9.097 3.724c-2.117-0.933-3.439-2.256-3.439-3.724z"></path>
<path fill="#ffe181" d="M32 7.435c0 4.026-3.264 7.29-7.29 7.29s-7.29-3.264-7.29-7.29c0-4.026 3.264-7.29 7.29-7.29s7.29 3.264 7.29 7.29z"></path>
<path fill="#fec458" d="M20.875 7.435c0-3.431 2.37-6.308 5.563-7.084-0.554-0.135-1.132-0.206-1.728-0.206-4.026 0-7.29 3.264-7.29 7.29s3.264 7.29 7.29 7.29c0.595 0 1.174-0.072 1.728-0.207-3.192-0.776-5.563-3.653-5.563-7.084z"></path>
<path fill="#ff656f" d="M20.691 6.464c-0.055 0-0.11-0.009-0.164-0.029-0.251-0.091-0.381-0.368-0.29-0.618 0.679-1.877 2.477-3.139 4.473-3.139 1.556 0 3.016 0.764 3.905 2.043 0.152 0.219 0.098 0.52-0.121 0.672s-0.52 0.098-0.672-0.121c-0.709-1.020-1.873-1.628-3.113-1.628-1.591 0-3.023 1.005-3.564 2.501-0.071 0.197-0.256 0.319-0.454 0.319z"></path>
<path fill="#ff656f" d="M24.71 12.191c-1.609 0-3.097-0.805-3.98-2.153-0.146-0.223-0.084-0.522 0.139-0.668s0.522-0.084 0.669 0.139c0.704 1.075 1.89 1.716 3.172 1.716 1.592 0 3.024-1.006 3.565-2.503 0.091-0.251 0.367-0.381 0.618-0.29s0.381 0.367 0.29 0.618c-0.679 1.878-2.476 3.14-4.473 3.14z"></path>
<path fill="#ff656f" d="M28.873 7.184l-1.801-1.344c-0.128-0.096-0.1-0.295 0.049-0.352l2.248-0.858c0.149-0.057 0.302 0.073 0.271 0.229l-0.447 2.202c-0.030 0.146-0.201 0.211-0.32 0.122z"></path>
<path fill="#ff656f" d="M20.476 7.623l1.801 1.344c0.128 0.095 0.1 0.295-0.049 0.352l-2.248 0.858c-0.149 0.057-0.303-0.073-0.271-0.229l0.447-2.202c0.030-0.146 0.201-0.211 0.32-0.122z"></path>
<path fill="#ff4756" d="M28.084 5.401c-0.086-0.064-0.1-0.175-0.056-0.258l-0.907 0.346c-0.149 0.057-0.177 0.256-0.049 0.352l1.801 1.344c0.119 0.089 0.29 0.024 0.32-0.122l0.147-0.724z"></path>
<path fill="#ff4756" d="M20.78 9.577l0.304-1.5-0.608-0.454c-0.119-0.089-0.29-0.024-0.32 0.122l-0.447 2.202c-0.032 0.156 0.122 0.287 0.271 0.229l0.95-0.363c-0.099-0.025-0.173-0.124-0.15-0.237z"></path>
</svg>
