<!-- Generated by IcoMoon.io -->
<svg version="1.1" xmlns="http://www.w3.org/2000/svg" width="32" height="32" viewBox="0 0 32 32">
<title>document</title>
<path d="M29.014 7.16l-6.956-6.957c-0.13-0.131-0.307-0.204-0.492-0.204h-16.696c-1.151 0-2.087 0.936-2.087 2.087v27.826c0 1.151 0.936 2.087 2.087 2.087h22.261c1.15 0 2.086-0.936 2.087-2.086 0-0.001 0-0.001 0-0.001v-22.261c0-0.184-0.073-0.362-0.204-0.492zM8.348 8.348v-2.783h11.13v2.783h-11.13zM27.826 29.913c0 0.384-0.312 0.696-0.696 0.696h-22.261c-0.383 0-0.696-0.312-0.696-0.696v-27.826c0-0.383 0.312-0.696 0.696-0.696h14.609v2.783h-11.826c-0.384 0-0.696 0.312-0.696 0.696v4.174c0 0.384 0.312 0.696 0.696 0.696h20.174v20.174zM27.826 8.348h-6.956v-6.957h0.408l6.549 6.549v0.408z"></path>
<path d="M7.652 13.913h8.348c0.384 0 0.696-0.312 0.696-0.696s-0.312-0.696-0.696-0.696h-8.348c-0.384 0-0.696 0.312-0.696 0.696s0.312 0.696 0.696 0.696z"></path>
<path d="M7.652 22.261h8.348c0.384 0 0.696-0.311 0.696-0.696s-0.312-0.696-0.696-0.696h-8.348c-0.384 0-0.696 0.311-0.696 0.696s0.312 0.696 0.696 0.696z"></path>
<path d="M6.957 17.391c0 0.385 0.312 0.696 0.696 0.696h16.696c0.385 0 0.696-0.311 0.696-0.696s-0.311-0.696-0.696-0.696h-16.696c-0.384 0-0.696 0.311-0.696 0.696z"></path>
<path d="M24.348 25.044h-16.696c-0.384 0-0.696 0.311-0.696 0.696s0.312 0.696 0.696 0.696h16.696c0.385 0 0.696-0.311 0.696-0.696s-0.311-0.696-0.696-0.696z"></path>
</svg>
