<!-- Generated by IcoMoon.io -->
<svg version="1.1" xmlns="http://www.w3.org/2000/svg" width="30" height="32" viewBox="0 0 30 32">
<title>hand-paper-o</title>
<path d="M15.714 2.286c-1.107 0-2 0.893-2 2v11.714h-0.571v-9.429c0-1.107-0.893-2-2-2s-2 0.893-2 2v14l-2.75-3.661c-0.429-0.571-1.107-0.911-1.822-0.911-1.267 0-2.286 1.035-2.286 2.286 0 0.501 0.161 0.982 0.464 1.375l6.857 9.143c0.429 0.571 1.107 0.911 1.822 0.911h12.286c0.822 0 1.536-0.59 1.696-1.393l1.358-7.232c0.054-0.339 0.089-0.696 0.089-1.054v-8.893c0-1.107-0.893-2-2-2s-2 0.893-2 2v4.857h-0.571v-9.429c0-1.107-0.893-2-2-2s-2 0.893-2 2v9.429h-0.571v-11.714c0-1.107-0.893-2-2-2zM15.714 0c1.607 0 3.089 0.911 3.822 2.358 0.25-0.054 0.501-0.072 0.75-0.072 2.358 0 4.286 1.928 4.286 4.286v0.304c2.482-0.143 4.571 1.768 4.571 4.267v8.893c0 0.501-0.054 1-0.143 1.482l-1.358 7.214c-0.339 1.893-2 3.267-3.928 3.267h-12.286c-1.429 0-2.803-0.696-3.661-1.822l-6.857-9.143c-0.59-0.786-0.911-1.768-0.911-2.75 0-2.518 2.035-4.571 4.571-4.571 0.75 0 1.661 0.178 2.286 0.607v-7.75c0-2.358 1.928-4.286 4.286-4.286 0.25 0 0.501 0.018 0.75 0.072 0.733-1.447 2.214-2.358 3.822-2.358z"></path>
</svg>
