<!-- Generated by IcoMoon.io -->
<svg version="1.1" xmlns="http://www.w3.org/2000/svg" width="32" height="32" viewBox="0 0 32 32">
<title>hdd</title>
<path fill="#35495e" d="M4.414 3.862v-2.759c0.001-0.304 0.247-0.551 0.552-0.552h22.069c0.304 0.001 0.551 0.247 0.552 0.552v29.793c-0.001 0.304-0.247 0.551-0.552 0.552h-22.069c-0.304-0.001-0.551-0.247-0.552-0.552z"></path>
<path fill="#4482c3" d="M3.862 16v11.358c0 0.146 0.058 0.287 0.162 0.39l4.091 4.091c0.103 0.103 0.244 0.162 0.39 0.162h14.991c0.146 0 0.287-0.058 0.39-0.162l4.091-4.091c0.103-0.103 0.162-0.244 0.162-0.39v-22.715c0-0.146-0.058-0.287-0.162-0.39l-4.091-4.091c-0.103-0.103-0.244-0.162-0.39-0.162h-14.991c-0.146 0-0.287 0.058-0.39 0.162l-4.091 4.091c-0.103 0.103-0.162 0.244-0.162 0.39z"></path>
<path fill="#2c3e50" d="M13.495 23.724h6.367c1.219 0 2.207 0.988 2.207 2.207s-0.988 2.207-2.207 2.207h-7.724z"></path>
<path fill="#ecf0f1" d="M19.057 21.010c4.386-1.51 7.011-5.999 6.175-10.562s-4.881-7.83-9.517-7.688c-4.637 0.143-8.473 3.653-9.026 8.258s2.342 8.925 6.813 10.162z"></path>
<path fill="#bdc3c7" d="M19.862 12.138c0 2.133-1.729 3.862-3.862 3.862s-3.862-1.729-3.862-3.862c0-2.133 1.729-3.862 3.862-3.862s3.862 1.729 3.862 3.862z"></path>
<path fill="#ecf0f1" d="M17.103 12.138c0 0.609-0.494 1.103-1.103 1.103s-1.103-0.494-1.103-1.103c0-0.609 0.494-1.103 1.103-1.103s1.103 0.494 1.103 1.103z"></path>
<path fill="#bdc3c7" d="M9.931 23.41l11.366-7.101c0.122-0.078 0.282-0.061 0.385 0.041s0.122 0.261 0.046 0.384l-6.588 10.543-5.208-0.243z"></path>
<path fill="#285680" d="M10.711 25.931h2.853c0.146 0 0.287 0.058 0.39 0.162l2.207 2.207c0.158 0.158 0.205 0.395 0.12 0.601s-0.287 0.341-0.51 0.341h-6.715c-0.146 0-0.287-0.058-0.39-0.162l-1.884-1.884c-0.103-0.103-0.162-0.244-0.162-0.39v-6.715c0-0.223 0.134-0.424 0.341-0.51s0.443-0.038 0.601 0.12l2.207 2.207c0.103 0.103 0.162 0.244 0.162 0.39v2.853c0 0.146 0.058 0.287 0.162 0.39l0.229 0.229c0.103 0.103 0.244 0.162 0.39 0.162z"></path>
<path fill="#393f4a" d="M17.655 20.966c0 0.305-0.247 0.552-0.552 0.552s-0.552-0.247-0.552-0.552c0-0.305 0.247-0.552 0.552-0.552s0.552 0.247 0.552 0.552z"></path>
<path fill="#393f4a" d="M8.276 3.862c0 0.305-0.247 0.552-0.552 0.552s-0.552-0.247-0.552-0.552c0-0.305 0.247-0.552 0.552-0.552s0.552 0.247 0.552 0.552z"></path>
<path fill="#fff" d="M15.448 4.966c0 0.305-0.247 0.552-0.552 0.552s-0.552-0.247-0.552-0.552c0-0.305 0.247-0.552 0.552-0.552s0.552 0.247 0.552 0.552z"></path>
<path fill="#393f4a" d="M24.828 3.862c0 0.305-0.247 0.552-0.552 0.552s-0.552-0.247-0.552-0.552c0-0.305 0.247-0.552 0.552-0.552s0.552 0.247 0.552 0.552z"></path>
<path fill="#393f4a" d="M24.828 20.414c0 0.305-0.247 0.552-0.552 0.552s-0.552-0.247-0.552-0.552c0-0.305 0.247-0.552 0.552-0.552s0.552 0.247 0.552 0.552z"></path>
<path fill="#393f4a" d="M14.345 24.276c0 0.305-0.247 0.552-0.552 0.552s-0.552-0.247-0.552-0.552c0-0.305 0.247-0.552 0.552-0.552s0.552 0.247 0.552 0.552z"></path>
<path fill="#fff" d="M9.379 12.138c-0.305 0-0.552-0.247-0.552-0.552 0.023-2.512 1.407-4.814 3.615-6.011 0.272-0.136 0.604-0.026 0.74 0.246s0.026 0.604-0.246 0.74c-1.836 1.009-2.985 2.929-3.006 5.024 0 0.305-0.247 0.552-0.552 0.552z"></path>
</svg>
