<svg aria-hidden="true" style="position: absolute; width: 0; height: 0; overflow: hidden;" version="1.1" xmlns="http://www.w3.org/2000/svg" xmlns:xlink="http://www.w3.org/1999/xlink">
<defs>
<symbol id="icon-angle-down" viewBox="0 0 21 32">
<path d="M19.197 13.143c0 0.143-0.072 0.304-0.178 0.41l-8.321 8.321c-0.107 0.107-0.267 0.178-0.41 0.178s-0.304-0.072-0.41-0.178l-8.321-8.321c-0.107-0.107-0.178-0.267-0.178-0.41s0.072-0.304 0.178-0.41l0.893-0.893c0.107-0.107 0.25-0.178 0.41-0.178 0.143 0 0.304 0.072 0.41 0.178l7.018 7.018 7.018-7.018c0.107-0.107 0.267-0.178 0.41-0.178s0.304 0.072 0.41 0.178l0.893 0.893c0.107 0.107 0.178 0.267 0.178 0.41z"></path>
</symbol>
<symbol id="icon-angle-left" viewBox="0 0 13 32">
<path d="M11.197 9.714c0 0.143-0.072 0.304-0.178 0.41l-7.018 7.018 7.018 7.018c0.107 0.107 0.178 0.267 0.178 0.41s-0.072 0.304-0.178 0.41l-0.893 0.893c-0.107 0.107-0.267 0.178-0.41 0.178s-0.304-0.072-0.41-0.178l-8.321-8.321c-0.107-0.107-0.178-0.267-0.178-0.41s0.072-0.304 0.178-0.41l8.321-8.321c0.107-0.107 0.267-0.178 0.41-0.178s0.304 0.072 0.41 0.178l0.893 0.893c0.107 0.107 0.178 0.25 0.178 0.41z"></path>
</symbol>
<symbol id="icon-arrow-left" viewBox="0 0 32 32">
<path d="M4 16l10.4-10.4v5.6h12.8v9.6h-12.8v5.6l-10.4-10.4z"></path>
</symbol>
<symbol id="icon-arrow-left1" viewBox="0 0 32 32">
<path d="M6.125 14.4l9.714-9.714-2.262-2.262-13.576 13.576 13.576 13.576 2.262-2.262-9.714-9.714h25.875v-3.2h-25.875z"></path>
</symbol>
<symbol id="icon-arrows" viewBox="0 0 32 32">
<path fill="#ffcb5a" style="fill: var(--color1, #ffcb5a)" d="M18.28 32h-4.56l-1.835-3.875-1.548-0.642-4.038 1.443-3.225-3.225 1.443-4.038-0.642-1.548-3.875-1.835v-4.56l3.875-1.835 0.642-1.548-1.443-4.038 3.225-3.225 4.040 1.444 1.545-0.64 1.836-3.878h4.56l1.836 3.878 1.545 0.64 4.040-1.444 3.225 3.225-1.443 4.038 0.642 1.548 3.875 1.835v4.56l-3.875 1.835-0.642 1.548 1.443 4.038-3.225 3.225-4.038-1.443-1.548 0.642z"></path>
<path fill="#fff" style="fill: var(--color2, #fff)" d="M16 12c2.209 0 4 1.791 4 4h2c0.001-3.148-2.431-5.761-5.571-5.987s-5.92 2.014-6.368 5.13c-0.448 3.116 1.588 6.048 4.664 6.717l-1.432 1.432 1.414 1.414 3.51-3.51-2.317-4.644-1.79 0.894 1.244 2.487c-2.054-0.335-3.506-2.191-3.338-4.265s1.903-3.671 3.984-3.669z"></path>
<path fill="#fff" style="fill: var(--color2, #fff)" d="M20 18h2v2h-2z"></path>
</symbol>
<symbol id="icon-backup" viewBox="0 0 32 32">
<path fill="#ffcb5a" style="fill: var(--color1, #ffcb5a)" d="M18.28 32h-4.56l-1.835-3.875-1.548-0.642-4.038 1.443-3.225-3.225 1.443-4.038-0.642-1.548-3.875-1.835v-4.56l3.875-1.835 0.642-1.548-1.443-4.038 3.225-3.225 4.040 1.444 1.545-0.64 1.836-3.878h4.56l1.836 3.878 1.545 0.64 4.040-1.444 3.225 3.225-1.443 4.038 0.642 1.548 3.875 1.835v4.56l-3.875 1.835-0.642 1.548 1.443 4.038-3.225 3.225-4.038-1.443-1.548 0.642z"></path>
<path fill="#fff" style="fill: var(--color2, #fff)" d="M16 12c2.209 0 4 1.791 4 4h2c0.001-3.148-2.431-5.761-5.571-5.987s-5.92 2.014-6.368 5.13c-0.448 3.116 1.588 6.048 4.664 6.717l-1.432 1.432 1.414 1.414 3.51-3.51-2.317-4.644-1.79 0.894 1.244 2.487c-2.054-0.335-3.506-2.191-3.338-4.265s1.903-3.671 3.984-3.669z"></path>
<path fill="#fff" style="fill: var(--color2, #fff)" d="M20 18h2v2h-2z"></path>
</symbol>
<symbol id="icon-bars" viewBox="0 0 27 32">
<path d="M27.429 24v2.286c0 0.625-0.518 1.143-1.143 1.143h-25.143c-0.625 0-1.143-0.518-1.143-1.143v-2.286c0-0.625 0.518-1.143 1.143-1.143h25.143c0.625 0 1.143 0.518 1.143 1.143zM27.429 14.857v2.286c0 0.625-0.518 1.143-1.143 1.143h-25.143c-0.625 0-1.143-0.518-1.143-1.143v-2.286c0-0.625 0.518-1.143 1.143-1.143h25.143c0.625 0 1.143 0.518 1.143 1.143zM27.429 5.714v2.286c0 0.625-0.518 1.143-1.143 1.143h-25.143c-0.625 0-1.143-0.518-1.143-1.143v-2.286c0-0.625 0.518-1.143 1.143-1.143h25.143c0.625 0 1.143 0.518 1.143 1.143z"></path>
</symbol>
<symbol id="icon-bin" viewBox="0 0 32 32">
<path d="M4 10v20c0 1.1 0.9 2 2 2h18c1.1 0 2-0.9 2-2v-20h-22zM10 28h-2v-14h2v14zM14 28h-2v-14h2v14zM18 28h-2v-14h2v14zM22 28h-2v-14h2v14z"></path>
<path d="M26.5 4h-6.5v-2.5c0-0.825-0.675-1.5-1.5-1.5h-7c-0.825 0-1.5 0.675-1.5 1.5v2.5h-6.5c-0.825 0-1.5 0.675-1.5 1.5v2.5h26v-2.5c0-0.825-0.675-1.5-1.5-1.5zM18 4h-6v-1.975h6v1.975z"></path>
</symbol>
<symbol id="icon-chevron-down" viewBox="0 0 32 32">
<path d="M7.057 12.943l8 8c0.521 0.521 1.365 0.521 1.885 0l8-8c0.521-0.521 0.521-1.365 0-1.885s-1.365-0.521-1.885 0l-7.057 7.057-7.057-7.057c-0.521-0.521-1.365-0.521-1.885 0s-0.521 1.365 0 1.885z"></path>
</symbol>
<symbol id="icon-chevron-thin-down" viewBox="0 0 32 32">
<path d="M27.869 9.774c0.435-0.429 1.134-0.429 1.566 0s0.434 1.122 0 1.55l-12.653 12.528c-0.432 0.429-1.131 0.429-1.566 0l-12.653-12.528c-0.432-0.429-0.432-1.122 0-1.55s1.134-0.429 1.566 0l11.87 11.426 11.869-11.426z"></path>
</symbol>
<symbol id="icon-cog" viewBox="0 0 32 32">
<path d="M29.181 19.070c-1.679-2.908-0.669-6.634 2.255-8.328l-3.145-5.447c-0.898 0.527-1.943 0.829-3.058 0.829-3.361 0-6.085-2.742-6.085-6.125h-6.289c0.008 1.044-0.252 2.103-0.811 3.070-1.679 2.908-5.411 3.897-8.339 2.211l-3.144 5.447c0.905 0.515 1.689 1.268 2.246 2.234 1.676 2.903 0.672 6.623-2.241 8.319l3.145 5.447c0.895-0.522 1.935-0.82 3.044-0.82 3.35 0 6.067 2.725 6.084 6.092h6.289c-0.003-1.034 0.259-2.080 0.811-3.038 1.676-2.903 5.399-3.894 8.325-2.219l3.145-5.447c-0.899-0.515-1.678-1.266-2.232-2.226zM16 22.479c-3.578 0-6.479-2.901-6.479-6.479s2.901-6.479 6.479-6.479c3.578 0 6.479 2.901 6.479 6.479s-2.901 6.479-6.479 6.479z"></path>
</symbol>
<symbol id="icon-computer" viewBox="0 0 32 32">
<path fill="#80b4fb" style="fill: var(--color3, #80b4fb)" d="M12.354 19.72c-6.823 0-12.354-1.728-12.354-3.86v7.435c1.734 1.612 6.61 2.774 12.354 2.774s10.62-1.161 12.354-2.774v-7.435c0 2.132-5.531 3.86-12.354 3.86z"></path>
<path fill="#0290f4" style="fill: var(--color4, #0290f4)" d="M6.644 19.284c-3.949-0.644-6.644-1.935-6.644-3.424v7.435c1.116 1.037 3.533 1.888 6.644 2.363z"></path>
<path fill="#80b4fb" style="fill: var(--color3, #80b4fb)" d="M12.354 6.954c-6.823 0-12.354-0.816-12.354-2.948v6.138c0 2.132 5.531 3.86 12.354 3.86s12.354-1.728 12.354-3.86v-6.138c0 2.132-5.531 2.948-12.354 2.948z"></path>
<path fill="#0290f4" style="fill: var(--color4, #0290f4)" d="M6.644 6.716c-3.949-0.376-6.644-1.223-6.644-2.711v6.138c0 1.488 2.696 2.779 6.644 3.424z"></path>
<path fill="#9dc6fb" style="fill: var(--color5, #9dc6fb)" d="M12.354 25.858c-6.823 0-12.354-1.728-12.354-3.86v5.998c0 2.132 5.531 3.86 12.354 3.86s12.354-1.728 12.354-3.86v-5.998c0 2.132-5.531 3.86-12.354 3.86z"></path>
<path fill="#80b4fb" style="fill: var(--color3, #80b4fb)" d="M6.644 25.422c-3.949-0.644-6.644-1.935-6.644-3.424v5.998c0 1.488 2.696 2.779 6.644 3.424z"></path>
<path fill="#9dc6fb" style="fill: var(--color5, #9dc6fb)" d="M12.354 13.863c-6.823 0-12.354-1.728-12.354-3.86v5.997c0 2.132 5.531 3.86 12.354 3.86s12.354-1.728 12.354-3.86v-5.997c0 2.132-5.531 3.86-12.354 3.86z"></path>
<path fill="#80b4fb" style="fill: var(--color3, #80b4fb)" d="M6.644 13.427c-3.949-0.644-6.644-1.935-6.644-3.424v5.997c0 1.488 2.696 2.779 6.644 3.424z"></path>
<path fill="#bed8fb" style="fill: var(--color6, #bed8fb)" d="M24.709 4.005c0 2.132-5.531 3.86-12.354 3.86s-12.354-1.728-12.354-3.86c0-2.132 5.531-3.86 12.354-3.86s12.354 1.728 12.354 3.86z"></path>
<path fill="#9dc6fb" style="fill: var(--color5, #9dc6fb)" d="M5.658 4.005c0-1.468 1.322-2.791 3.439-3.724-5.242 0.447-9.097 1.945-9.097 3.724s3.854 3.277 9.097 3.724c-2.117-0.933-3.439-2.256-3.439-3.724z"></path>
<path fill="#ffe181" style="fill: var(--color7, #ffe181)" d="M32 7.435c0 4.026-3.264 7.29-7.29 7.29s-7.29-3.264-7.29-7.29c0-4.026 3.264-7.29 7.29-7.29s7.29 3.264 7.29 7.29z"></path>
<path fill="#fec458" style="fill: var(--color8, #fec458)" d="M20.875 7.435c0-3.431 2.37-6.308 5.563-7.084-0.554-0.135-1.132-0.206-1.728-0.206-4.026 0-7.29 3.264-7.29 7.29s3.264 7.29 7.29 7.29c0.595 0 1.174-0.072 1.728-0.207-3.192-0.776-5.563-3.653-5.563-7.084z"></path>
<path fill="#ff656f" style="fill: var(--color9, #ff656f)" d="M20.691 6.464c-0.055 0-0.11-0.009-0.164-0.029-0.251-0.091-0.381-0.368-0.29-0.618 0.679-1.877 2.477-3.139 4.473-3.139 1.556 0 3.016 0.764 3.905 2.043 0.152 0.219 0.098 0.52-0.121 0.672s-0.52 0.098-0.672-0.121c-0.709-1.020-1.873-1.628-3.113-1.628-1.591 0-3.023 1.005-3.564 2.501-0.071 0.197-0.256 0.319-0.454 0.319z"></path>
<path fill="#ff656f" style="fill: var(--color9, #ff656f)" d="M24.71 12.191c-1.609 0-3.097-0.805-3.98-2.153-0.146-0.223-0.084-0.522 0.139-0.668s0.522-0.084 0.669 0.139c0.704 1.075 1.89 1.716 3.172 1.716 1.592 0 3.024-1.006 3.565-2.503 0.091-0.251 0.367-0.381 0.618-0.29s0.381 0.367 0.29 0.618c-0.679 1.878-2.476 3.14-4.473 3.14z"></path>
<path fill="#ff656f" style="fill: var(--color9, #ff656f)" d="M28.873 7.184l-1.801-1.344c-0.128-0.096-0.1-0.295 0.049-0.352l2.248-0.858c0.149-0.057 0.302 0.073 0.271 0.229l-0.447 2.202c-0.030 0.146-0.201 0.211-0.32 0.122z"></path>
<path fill="#ff656f" style="fill: var(--color9, #ff656f)" d="M20.476 7.623l1.801 1.344c0.128 0.095 0.1 0.295-0.049 0.352l-2.248 0.858c-0.149 0.057-0.303-0.073-0.271-0.229l0.447-2.202c0.030-0.146 0.201-0.211 0.32-0.122z"></path>
<path fill="#ff4756" style="fill: var(--color10, #ff4756)" d="M28.084 5.401c-0.086-0.064-0.1-0.175-0.056-0.258l-0.907 0.346c-0.149 0.057-0.177 0.256-0.049 0.352l1.801 1.344c0.119 0.089 0.29 0.024 0.32-0.122l0.147-0.724z"></path>
<path fill="#ff4756" style="fill: var(--color10, #ff4756)" d="M20.78 9.577l0.304-1.5-0.608-0.454c-0.119-0.089-0.29-0.024-0.32 0.122l-0.447 2.202c-0.032 0.156 0.122 0.287 0.271 0.229l0.95-0.363c-0.099-0.025-0.173-0.124-0.15-0.237z"></path>
</symbol>
<symbol id="icon-cross" viewBox="0 0 32 32">
<path d="M31.708 25.708c0 0 0 0 0 0l-9.708-9.708 9.708-9.708c0 0 0 0 0 0 0.105-0.105 0.18-0.227 0.229-0.357 0.133-0.356 0.057-0.771-0.229-1.057l-4.586-4.586c-0.286-0.286-0.702-0.361-1.057-0.229-0.13 0.048-0.252 0.124-0.357 0.228 0 0 0 0 0 0l-9.708 9.708-9.708-9.708c0 0 0 0 0 0-0.105-0.104-0.227-0.18-0.357-0.228-0.356-0.133-0.771-0.057-1.057 0.229l-4.586 4.586c-0.286 0.286-0.361 0.702-0.229 1.057 0.049 0.13 0.124 0.252 0.229 0.357 0 0 0 0 0 0l9.708 9.708-9.708 9.708c0 0 0 0 0 0-0.104 0.105-0.18 0.227-0.229 0.357-0.133 0.355-0.057 0.771 0.229 1.057l4.586 4.586c0.286 0.286 0.702 0.361 1.057 0.229 0.13-0.049 0.252-0.124 0.357-0.229 0 0 0 0 0 0l9.708-9.708 9.708 9.708c0 0 0 0 0 0 0.105 0.105 0.227 0.18 0.357 0.229 0.356 0.133 0.771 0.057 1.057-0.229l4.586-4.586c0.286-0.286 0.362-0.702 0.229-1.057-0.049-0.13-0.124-0.252-0.229-0.357z"></path>
</symbol>
<symbol id="icon-database-2" viewBox="0 0 32 32">
<path fill="#80b4fb" style="fill: var(--color3, #80b4fb)" d="M12.354 19.72c-6.823 0-12.354-1.728-12.354-3.86v7.435c1.734 1.612 6.61 2.774 12.354 2.774s10.62-1.161 12.354-2.774v-7.435c0 2.132-5.531 3.86-12.354 3.86z"></path>
<path fill="#0290f4" style="fill: var(--color4, #0290f4)" d="M6.644 19.284c-3.949-0.644-6.644-1.935-6.644-3.424v7.435c1.116 1.037 3.533 1.888 6.644 2.363z"></path>
<path fill="#80b4fb" style="fill: var(--color3, #80b4fb)" d="M12.354 6.954c-6.823 0-12.354-0.816-12.354-2.948v6.138c0 2.132 5.531 3.86 12.354 3.86s12.354-1.728 12.354-3.86v-6.138c0 2.132-5.531 2.948-12.354 2.948z"></path>
<path fill="#0290f4" style="fill: var(--color4, #0290f4)" d="M6.644 6.716c-3.949-0.376-6.644-1.223-6.644-2.711v6.138c0 1.488 2.696 2.779 6.644 3.424z"></path>
<path fill="#9dc6fb" style="fill: var(--color5, #9dc6fb)" d="M12.354 25.858c-6.823 0-12.354-1.728-12.354-3.86v5.998c0 2.132 5.531 3.86 12.354 3.86s12.354-1.728 12.354-3.86v-5.998c-0 2.132-5.531 3.86-12.354 3.86z"></path>
<path fill="#80b4fb" style="fill: var(--color3, #80b4fb)" d="M6.644 25.422c-3.949-0.644-6.644-1.935-6.644-3.424v5.998c0 1.488 2.696 2.779 6.644 3.424z"></path>
<path fill="#9dc6fb" style="fill: var(--color5, #9dc6fb)" d="M12.354 13.863c-6.823 0-12.354-1.728-12.354-3.86v5.997c0 2.132 5.531 3.86 12.354 3.86s12.354-1.728 12.354-3.86v-5.997c-0 2.132-5.531 3.86-12.354 3.86z"></path>
<path fill="#80b4fb" style="fill: var(--color3, #80b4fb)" d="M6.644 13.427c-3.949-0.644-6.644-1.935-6.644-3.424v5.997c0 1.488 2.696 2.779 6.644 3.424z"></path>
<path fill="#bed8fb" style="fill: var(--color6, #bed8fb)" d="M24.709 4.005c0 2.132-5.531 3.86-12.354 3.86s-12.354-1.728-12.354-3.86c0-2.132 5.531-3.86 12.354-3.86s12.354 1.728 12.354 3.86z"></path>
<path fill="#9dc6fb" style="fill: var(--color5, #9dc6fb)" d="M5.658 4.005c0-1.468 1.322-2.791 3.439-3.724-5.242 0.447-9.097 1.945-9.097 3.724s3.854 3.277 9.097 3.724c-2.117-0.933-3.439-2.256-3.439-3.724z"></path>
<path fill="#ffe181" style="fill: var(--color7, #ffe181)" d="M32 7.435c0 4.026-3.264 7.29-7.29 7.29s-7.29-3.264-7.29-7.29c0-4.026 3.264-7.29 7.29-7.29s7.29 3.264 7.29 7.29z"></path>
<path fill="#fec458" style="fill: var(--color8, #fec458)" d="M20.875 7.435c0-3.431 2.37-6.308 5.563-7.084-0.554-0.135-1.132-0.206-1.728-0.206-4.026 0-7.29 3.264-7.29 7.29s3.264 7.29 7.29 7.29c0.595 0 1.174-0.072 1.728-0.207-3.192-0.776-5.563-3.653-5.563-7.084z"></path>
<path fill="#ff656f" style="fill: var(--color9, #ff656f)" d="M20.691 6.464c-0.055 0-0.11-0.009-0.164-0.029-0.251-0.091-0.381-0.368-0.29-0.618 0.679-1.877 2.477-3.139 4.473-3.139 1.556 0 3.016 0.764 3.905 2.043 0.152 0.219 0.098 0.52-0.121 0.672s-0.52 0.098-0.672-0.121c-0.709-1.020-1.873-1.628-3.113-1.628-1.591 0-3.023 1.005-3.564 2.501-0.071 0.197-0.256 0.319-0.454 0.319z"></path>
<path fill="#ff656f" style="fill: var(--color9, #ff656f)" d="M24.71 12.191c-1.609 0-3.097-0.805-3.98-2.153-0.146-0.223-0.084-0.522 0.139-0.668s0.522-0.084 0.669 0.139c0.704 1.075 1.89 1.716 3.172 1.716 1.592 0 3.024-1.006 3.565-2.503 0.091-0.251 0.367-0.381 0.618-0.29s0.381 0.367 0.29 0.618c-0.679 1.878-2.476 3.14-4.473 3.14z"></path>
<path fill="#ff656f" style="fill: var(--color9, #ff656f)" d="M28.873 7.184l-1.801-1.344c-0.128-0.096-0.1-0.295 0.049-0.352l2.248-0.858c0.149-0.057 0.302 0.073 0.271 0.229l-0.447 2.202c-0.030 0.146-0.201 0.211-0.32 0.122z"></path>
<path fill="#ff656f" style="fill: var(--color9, #ff656f)" d="M20.476 7.623l1.801 1.344c0.128 0.095 0.1 0.295-0.049 0.352l-2.248 0.858c-0.149 0.057-0.303-0.073-0.271-0.229l0.447-2.202c0.030-0.146 0.201-0.211 0.32-0.122z"></path>
<path fill="#ff4756" style="fill: var(--color10, #ff4756)" d="M28.084 5.401c-0.086-0.064-0.1-0.175-0.056-0.258l-0.907 0.346c-0.149 0.057-0.177 0.256-0.049 0.352l1.801 1.344c0.119 0.089 0.29 0.024 0.32-0.122l0.147-0.724z"></path>
<path fill="#ff4756" style="fill: var(--color10, #ff4756)" d="M20.78 9.577l0.304-1.5-0.608-0.454c-0.119-0.089-0.29-0.024-0.32 0.122l-0.447 2.202c-0.032 0.156 0.122 0.287 0.271 0.229l0.95-0.363c-0.099-0.025-0.173-0.124-0.15-0.237z"></path>
</symbol>
<symbol id="icon-database" viewBox="0 0 32 32">
<path d="M16 0c-8.837 0-16 2.239-16 5v4c0 2.761 7.163 5 16 5s16-2.239 16-5v-4c0-2.761-7.163-5-16-5z"></path>
<path d="M16 17c-8.837 0-16-2.239-16-5v6c0 2.761 7.163 5 16 5s16-2.239 16-5v-6c0 2.761-7.163 5-16 5z"></path>
<path d="M16 26c-8.837 0-16-2.239-16-5v6c0 2.761 7.163 5 16 5s16-2.239 16-5v-6c0 2.761-7.163 5-16 5z"></path>
</symbol>
<symbol id="icon-document" viewBox="0 0 32 32">
<path d="M29.014 7.16l-6.956-6.957c-0.13-0.131-0.307-0.204-0.492-0.204h-16.696c-1.151 0-2.087 0.936-2.087 2.087v27.826c0 1.151 0.936 2.087 2.087 2.087h22.261c1.15 0 2.086-0.936 2.087-2.086 0-0.001 0-0.001 0-0.001v-22.261c0-0.184-0.073-0.362-0.204-0.492zM8.348 8.348v-2.783h11.13v2.783h-11.13zM27.826 29.913c0 0.384-0.312 0.696-0.696 0.696h-22.261c-0.383 0-0.696-0.312-0.696-0.696v-27.826c0-0.383 0.312-0.696 0.696-0.696h14.609v2.783h-11.826c-0.384 0-0.696 0.312-0.696 0.696v4.174c0 0.384 0.312 0.696 0.696 0.696h20.174v20.174zM27.826 8.348h-6.956v-6.957h0.408l6.549 6.549v0.408z"></path>
<path d="M7.652 13.913h8.348c0.384 0 0.696-0.312 0.696-0.696s-0.312-0.696-0.696-0.696h-8.348c-0.384 0-0.696 0.312-0.696 0.696s0.312 0.696 0.696 0.696z"></path>
<path d="M7.652 22.261h8.348c0.384 0 0.696-0.311 0.696-0.696s-0.312-0.696-0.696-0.696h-8.348c-0.384 0-0.696 0.311-0.696 0.696s0.312 0.696 0.696 0.696z"></path>
<path d="M6.957 17.391c0 0.385 0.312 0.696 0.696 0.696h16.696c0.385 0 0.696-0.311 0.696-0.696s-0.311-0.696-0.696-0.696h-16.696c-0.384 0-0.696 0.311-0.696 0.696z"></path>
<path d="M24.348 25.044h-16.696c-0.384 0-0.696 0.311-0.696 0.696s0.312 0.696 0.696 0.696h16.696c0.385 0 0.696-0.311 0.696-0.696s-0.311-0.696-0.696-0.696z"></path>
</symbol>
<symbol id="icon-hand-paper-o" viewBox="0 0 30 32">
<path d="M15.714 2.286c-1.107 0-2 0.893-2 2v11.714h-0.571v-9.429c0-1.107-0.893-2-2-2s-2 0.893-2 2v14l-2.75-3.661c-0.429-0.571-1.107-0.911-1.822-0.911-1.267 0-2.286 1.035-2.286 2.286 0 0.501 0.161 0.982 0.464 1.375l6.857 9.143c0.429 0.571 1.107 0.911 1.822 0.911h12.286c0.822 0 1.536-0.59 1.696-1.393l1.358-7.232c0.054-0.339 0.089-0.696 0.089-1.054v-8.893c0-1.107-0.893-2-2-2s-2 0.893-2 2v4.857h-0.571v-9.429c0-1.107-0.893-2-2-2s-2 0.893-2 2v9.429h-0.571v-11.714c0-1.107-0.893-2-2-2zM15.714 0c1.607 0 3.089 0.911 3.822 2.358 0.25-0.054 0.501-0.072 0.75-0.072 2.358 0 4.286 1.928 4.286 4.286v0.304c2.482-0.143 4.571 1.768 4.571 4.267v8.893c0 0.501-0.054 1-0.143 1.482l-1.358 7.214c-0.339 1.893-2 3.267-3.928 3.267h-12.286c-1.429 0-2.803-0.696-3.661-1.822l-6.857-9.143c-0.59-0.786-0.911-1.768-0.911-2.75 0-2.518 2.035-4.571 4.571-4.571 0.75 0 1.661 0.178 2.286 0.607v-7.75c0-2.358 1.928-4.286 4.286-4.286 0.25 0 0.501 0.018 0.75 0.072 0.733-1.447 2.214-2.358 3.822-2.358z"></path>
</symbol>
<symbol id="icon-hand-stop" viewBox="0 0 32 32">
<path d="M27.2 25.6c0 3.534-2.866 6.4-6.4 6.4v0h-9.6c0 0 0 0 0 0-3.534 0-6.4-2.866-6.4-6.4 0-0.006 0-0.011 0-0.018v0.002-19.184c0-0.883 0.717-1.6 1.6-1.6v0c0.883 0 1.6 0.717 1.6 1.6v0 9.6h1.6v-12.8c0-0.883 0.717-1.6 1.6-1.6v0c0.883 0 1.6 0.717 1.6 1.6v0 12.8h1.6v-14.4c0-0.883 0.717-1.6 1.6-1.6s1.6 0.717 1.6 1.6v0 14.4h1.6v-12.8c0-0.883 0.717-1.6 1.6-1.6v0c0.883 0 1.6 0.717 1.6 1.6v0 20.8h1.6v-9.6c0-0.883 0.717-1.6 1.6-1.6v0h1.6v12.8z"></path>
</symbol>
<symbol id="icon-hdd" viewBox="0 0 32 32">
<path fill="#35495e" style="fill: var(--color11, #35495e)" d="M4.414 3.862v-2.759c0.001-0.304 0.247-0.551 0.552-0.552h22.069c0.304 0.001 0.551 0.247 0.552 0.552v29.793c-0.001 0.304-0.247 0.551-0.552 0.552h-22.069c-0.304-0.001-0.551-0.247-0.552-0.552z"></path>
<path fill="#4482c3" style="fill: var(--color12, #4482c3)" d="M3.862 16v11.358c0 0.146 0.058 0.287 0.162 0.39l4.091 4.091c0.103 0.103 0.244 0.162 0.39 0.162h14.991c0.146 0 0.287-0.058 0.39-0.162l4.091-4.091c0.103-0.103 0.162-0.244 0.162-0.39v-22.715c0-0.146-0.058-0.287-0.162-0.39l-4.091-4.091c-0.103-0.103-0.244-0.162-0.39-0.162h-14.991c-0.146 0-0.287 0.058-0.39 0.162l-4.091 4.091c-0.103 0.103-0.162 0.244-0.162 0.39z"></path>
<path fill="#2c3e50" style="fill: var(--color13, #2c3e50)" d="M13.495 23.724h6.367c1.219 0 2.207 0.988 2.207 2.207s-0.988 2.207-2.207 2.207h-7.724z"></path>
<path fill="#ecf0f1" style="fill: var(--color14, #ecf0f1)" d="M19.057 21.010c4.386-1.51 7.011-5.999 6.175-10.562s-4.881-7.83-9.517-7.688c-4.637 0.143-8.473 3.653-9.026 8.258s2.342 8.925 6.813 10.162z"></path>
<path fill="#bdc3c7" style="fill: var(--color15, #bdc3c7)" d="M19.862 12.138c0 2.133-1.729 3.862-3.862 3.862s-3.862-1.729-3.862-3.862c0-2.133 1.729-3.862 3.862-3.862s3.862 1.729 3.862 3.862z"></path>
<path fill="#ecf0f1" style="fill: var(--color14, #ecf0f1)" d="M17.103 12.138c0 0.609-0.494 1.103-1.103 1.103s-1.103-0.494-1.103-1.103c0-0.609 0.494-1.103 1.103-1.103s1.103 0.494 1.103 1.103z"></path>
<path fill="#bdc3c7" style="fill: var(--color15, #bdc3c7)" d="M9.931 23.41l11.366-7.101c0.122-0.078 0.282-0.061 0.385 0.041s0.122 0.261 0.046 0.384l-6.588 10.543-5.208-0.243z"></path>
<path fill="#285680" style="fill: var(--color16, #285680)" d="M10.711 25.931h2.853c0.146 0 0.287 0.058 0.39 0.162l2.207 2.207c0.158 0.158 0.205 0.395 0.12 0.601s-0.287 0.341-0.51 0.341h-6.715c-0.146 0-0.287-0.058-0.39-0.162l-1.884-1.884c-0.103-0.103-0.162-0.244-0.162-0.39v-6.715c0-0.223 0.134-0.424 0.341-0.51s0.443-0.038 0.601 0.12l2.207 2.207c0.103 0.103 0.162 0.244 0.162 0.39v2.853c0 0.146 0.058 0.287 0.162 0.39l0.229 0.229c0.103 0.103 0.244 0.162 0.39 0.162z"></path>
<path fill="#393f4a" style="fill: var(--color17, #393f4a)" d="M17.655 20.966c0 0.305-0.247 0.552-0.552 0.552s-0.552-0.247-0.552-0.552c0-0.305 0.247-0.552 0.552-0.552s0.552 0.247 0.552 0.552z"></path>
<path fill="#393f4a" style="fill: var(--color17, #393f4a)" d="M8.276 3.862c0 0.305-0.247 0.552-0.552 0.552s-0.552-0.247-0.552-0.552c0-0.305 0.247-0.552 0.552-0.552s0.552 0.247 0.552 0.552z"></path>
<path fill="#fff" style="fill: var(--color2, #fff)" d="M15.448 4.966c0 0.305-0.247 0.552-0.552 0.552s-0.552-0.247-0.552-0.552c0-0.305 0.247-0.552 0.552-0.552s0.552 0.247 0.552 0.552z"></path>
<path fill="#393f4a" style="fill: var(--color17, #393f4a)" d="M24.828 3.862c0 0.305-0.247 0.552-0.552 0.552s-0.552-0.247-0.552-0.552c0-0.305 0.247-0.552 0.552-0.552s0.552 0.247 0.552 0.552z"></path>
<path fill="#393f4a" style="fill: var(--color17, #393f4a)" d="M24.828 20.414c0 0.305-0.247 0.552-0.552 0.552s-0.552-0.247-0.552-0.552c0-0.305 0.247-0.552 0.552-0.552s0.552 0.247 0.552 0.552z"></path>
<path fill="#393f4a" style="fill: var(--color17, #393f4a)" d="M14.345 24.276c0 0.305-0.247 0.552-0.552 0.552s-0.552-0.247-0.552-0.552c0-0.305 0.247-0.552 0.552-0.552s0.552 0.247 0.552 0.552z"></path>
<path fill="#fff" style="fill: var(--color2, #fff)" d="M9.379 12.138c-0.305 0-0.552-0.247-0.552-0.552 0.023-2.512 1.407-4.814 3.615-6.011 0.272-0.136 0.604-0.026 0.74 0.246s0.026 0.604-0.246 0.74c-1.836 1.009-2.985 2.929-3.006 5.024 0 0.305-0.247 0.552-0.552 0.552z"></path>
</symbol>
<symbol id="icon-history" viewBox="0 0 34 32">
<path d="M20 2c7.732 0 14 6.268 14 14s-6.268 14-14 14v-3c2.938 0 5.701-1.144 7.778-3.222s3.222-4.84 3.222-7.778c0-2.938-1.144-5.701-3.222-7.778s-4.84-3.222-7.778-3.222c-2.938 0-5.701 1.144-7.778 3.222-1.598 1.598-2.643 3.601-3.041 5.778h5.819l-7 8-7-8h5.143c0.971-6.784 6.804-12 13.857-12zM26 14v4h-8v-10h4v6z"></path>
</symbol>
<symbol id="icon-home3" viewBox="0 0 32 32">
<path d="M32 19l-6-6v-9h-4v5l-6-6-16 16v1h4v10h10v-6h4v6h10v-10h4z"></path>
</symbol>
<symbol id="icon-keep" viewBox="0 0 32 32">
<path d="M22 12v-8h-12v8.060l-4-0.005v15.945h20v-16h-4zM18 12h-4v-4h4v4z"></path>
</symbol>
<symbol id="icon-lock" viewBox="0 0 32 32">
<path d="M15 21.915v0c-0.583-0.206-1-0.762-1-1.415 0-0.828 0.672-1.5 1.5-1.5s1.5 0.672 1.5 1.5c0 0.653-0.417 1.209-1 1.415v2.594c0 0.263-0.224 0.491-0.5 0.491-0.268 0-0.5-0.22-0.5-0.491v-2.594zM8 14v0 0c-1.658 0.005-3 1.34-3 3.009v9.981c0 1.662 1.346 3.009 3.009 3.009h14.982c1.662 0 3.009-1.337 3.009-3.009v-9.981c0-1.659-1.341-3.005-3-3.009v-3.501c0-4.142-3.366-7.499-7.5-7.499-4.142 0-7.5 3.357-7.5 7.499v3.501zM11 14v-3.499c0-2.492 2.015-4.501 4.5-4.501 2.48 0 4.5 2.015 4.5 4.501v3.499h-9z"></path>
</symbol>
<symbol id="icon-lock1" viewBox="0 0 32 32">
<path d="M18.5 14h-0.5v-6c0-3.308-2.692-6-6-6h-4c-3.308 0-6 2.692-6 6v6h-0.5c-0.825 0-1.5 0.675-1.5 1.5v15c0 0.825 0.675 1.5 1.5 1.5h17c0.825 0 1.5-0.675 1.5-1.5v-15c0-0.825-0.675-1.5-1.5-1.5zM6 8c0-1.103 0.897-2 2-2h4c1.103 0 2 0.897 2 2v6h-8v-6z"></path>
</symbol>
<symbol id="icon-locked" viewBox="0 0 32 32">
<path d="M29 32h-26c-0.552 0-1-0.447-1-1v-16c0-0.553 0.448-1 1-1h3v-4c0-5.523 4.477-10 10-10s10 4.477 10 10v4h3c0.553 0 1 0.447 1 1v16c0 0.553-0.447 1-1 1zM22 9.5c0-3.038-2.687-5.5-6-5.5s-6 2.462-6 5.5v4.5h12v-4.5z"></path>
</symbol>
<symbol id="icon-office" viewBox="0 0 32 32">
<path d="M0 32h16v-32h-16v32zM10 4h4v4h-4v-4zM10 12h4v4h-4v-4zM10 20h4v4h-4v-4zM2 4h4v4h-4v-4zM2 12h4v4h-4v-4zM2 20h4v4h-4v-4zM18 10h14v2h-14zM18 32h4v-8h6v8h4v-18h-14z"></path>
</symbol>
<symbol id="icon-pencil" viewBox="0 0 32 32">
<path d="M27 0c2.761 0 5 2.239 5 5 0 1.126-0.372 2.164-1 3l-2 2-7-7 2-2c0.836-0.628 1.874-1 3-1zM2 23l-2 9 9-2 18.5-18.5-7-7-18.5 18.5zM22.362 11.362l-14 14-1.724-1.724 14-14 1.724 1.724z"></path>
</symbol>
<symbol id="icon-plus" viewBox="0 0 32 32">
<path d="M31 12h-11v-11c0-0.552-0.448-1-1-1h-6c-0.552 0-1 0.448-1 1v11h-11c-0.552 0-1 0.448-1 1v6c0 0.552 0.448 1 1 1h11v11c0 0.552 0.448 1 1 1h6c0.552 0 1-0.448 1-1v-11h11c0.552 0 1-0.448 1-1v-6c0-0.552-0.448-1-1-1z"></path>
</symbol>
<symbol id="icon-point-up" viewBox="0 0 32 32">
<path d="M30 19v-5c0-1.654-1.346-3-3-3-0.535 0-1.037 0.14-1.472 0.386-0.534-0.833-1.467-1.386-2.528-1.386-0.768 0-1.469 0.29-2 0.766-0.531-0.476-1.232-0.766-2-0.766-0.35 0-0.687 0.060-1 0.171v-7.171c0-1.654-1.346-3-3-3s-3 1.346-3 3v12.334l-5.501-2.932c-0.454-0.262-0.973-0.401-1.499-0.401-1.654 0-3 1.346-3 3 0 0.824 0.327 1.592 0.922 2.163 0.008 0.007 0.015 0.015 0.023 0.022l7.474 6.815h-1.419c-0.552 0-1 0.448-1 1v6c0 0.552 0.448 1 1 1h20c0.552 0 1-0.448 1-1v-6c0-0.552-0.448-1-1-1h-1.382l2.276-4.553c0.069-0.139 0.106-0.292 0.106-0.447zM28 27c0 0.552-0.448 1-1 1s-1-0.448-1-1 0.448-1 1-1 1 0.448 1 1zM28 18.764l-2.618 5.236h-11.995l-9.088-8.286c-0.193-0.19-0.299-0.443-0.299-0.714 0-0.551 0.449-1 1-1 0.171 0 0.332 0.041 0.479 0.122 0.017 0.010 0.033 0.020 0.051 0.029l7 3.732c0.31 0.165 0.684 0.156 0.985-0.025s0.485-0.506 0.485-0.857v-14c0-0.551 0.449-1 1-1s1 0.449 1 1v10c0 0.552 0.448 1 1 1s1-0.448 1-1c0-0.551 0.449-1 1-1s1 0.449 1 1c0 0.552 0.448 1 1 1s1-0.448 1-1c0-0.551 0.449-1 1-1s1 0.449 1 1v1c0 0.552 0.448 1 1 1s1-0.448 1-1c0-0.551 0.449-1 1-1s1 0.449 1 1v4.764z"></path>
</symbol>
<symbol id="icon-search" viewBox="0 0 32 32">
<path d="M31.008 27.231l-7.58-6.447c-0.784-0.705-1.622-1.029-2.299-0.998 1.789-2.096 2.87-4.815 2.87-7.787 0-6.627-5.373-12-12-12s-12 5.373-12 12 5.373 12 12 12c2.972 0 5.691-1.081 7.787-2.87-0.031 0.677 0.293 1.515 0.998 2.299l6.447 7.58c1.104 1.226 2.907 1.33 4.007 0.23s0.997-2.903-0.23-4.007zM12 20c-4.418 0-8-3.582-8-8s3.582-8 8-8 8 3.582 8 8-3.582 8-8 8z"></path>
</symbol>
<symbol id="icon-share2" viewBox="0 0 32 32">
<path d="M27 22c-1.411 0-2.685 0.586-3.594 1.526l-13.469-6.734c0.041-0.258 0.063-0.522 0.063-0.791s-0.022-0.534-0.063-0.791l13.469-6.734c0.909 0.94 2.183 1.526 3.594 1.526 2.761 0 5-2.239 5-5s-2.239-5-5-5-5 2.239-5 5c0 0.269 0.022 0.534 0.063 0.791l-13.469 6.734c-0.909-0.94-2.183-1.526-3.594-1.526-2.761 0-5 2.239-5 5s2.239 5 5 5c1.411 0 2.685-0.586 3.594-1.526l13.469 6.734c-0.041 0.258-0.063 0.522-0.063 0.791 0 2.761 2.239 5 5 5s5-2.239 5-5c0-2.761-2.239-5-5-5z"></path>
</symbol>
<symbol id="icon-user" viewBox="0 0 32 32">
<path d="M18 22.082v-1.649c2.203-1.241 4-4.337 4-7.432 0-4.971 0-9-6-9s-6 4.029-6 9c0 3.096 1.797 6.191 4 7.432v1.649c-6.784 0.555-12 3.888-12 7.918h28c0-4.030-5.216-7.364-12-7.918z"></path>
</symbol>
<symbol id="icon-users" viewBox="0 0 36 32">
<path d="M24 24.082v-1.649c2.203-1.241 4-4.337 4-7.432 0-4.971 0-9-6-9s-6 4.029-6 9c0 3.096 1.797 6.191 4 7.432v1.649c-6.784 0.555-12 3.888-12 7.918h28c0-4.030-5.216-7.364-12-7.918z"></path>
<path d="M10.225 24.854c1.728-1.13 3.877-1.989 6.243-2.513-0.47-0.556-0.897-1.176-1.265-1.844-0.95-1.726-1.453-3.627-1.453-5.497 0-2.689 0-5.228 0.956-7.305 0.928-2.016 2.598-3.265 4.976-3.734-0.529-2.39-1.936-3.961-5.682-3.961-6 0-6 4.029-6 9 0 3.096 1.797 6.191 4 7.432v1.649c-6.784 0.555-12 3.888-12 7.918h8.719c0.454-0.403 0.956-0.787 1.506-1.146z"></path>
</symbol>
<symbol id="icon-printer" viewBox="0 0 32 32">
<path d="M8 2h16v4h-16v-4z"></path>
<path d="M30 8h-28c-1.1 0-2 0.9-2 2v10c0 1.1 0.9 2 2 2h6v8h16v-8h6c1.1 0 2-0.9 2-2v-10c0-1.1-0.9-2-2-2zM4 14c-1.105 0-2-0.895-2-2s0.895-2 2-2 2 0.895 2 2-0.895 2-2 2zM22 28h-12v-10h12v10z"></path>
</symbol>
</defs>
</svg>
